<?xml version="1.0" encoding="UTF-8" standalone="no"?>
<!DOCTYPE svg PUBLIC "-//W3C//DTD SVG 1.1//EN" "http://www.w3.org/Graphics/SVG/1.1/DTD/svg11.dtd">
<svg width="100%" height="100%" viewBox="0 0 1211 369" version="1.1" xmlns="http://www.w3.org/2000/svg" xmlns:xlink="http://www.w3.org/1999/xlink" xml:space="preserve" xmlns:serif="http://www.serif.com/" style="fill-rule:evenodd;clip-rule:evenodd;stroke-linejoin:round;stroke-miterlimit:1.41421;">
    <g transform="matrix(1,0,0,1,-0.203,161)">
        <g transform="matrix(1,0,0,1,0,-161)">
            <clipPath id="_clip1">
                <rect x="0.203" y="161" width="1210.57" height="207.25"/>
            </clipPath>
            <g clip-path="url(#_clip1)">
                <path d="M1132,116L1207,116L1207,125L1132,125L1132,116ZM560.422,39.058L560.422,95.19C560.422,99.08 559.497,102.02 557.648,104.012C555.798,106.004 553.45,107 550.604,107C547.759,107 545.446,105.98 543.668,103.94C541.889,101.901 541,98.985 541,95.19L541,39.627C541,35.785 541.89,32.892 543.668,30.947C545.446,29.003 547.758,28.031 550.604,28.031C553.45,28.031 555.798,29.003 557.648,30.947C559.498,32.892 560.422,35.596 560.422,39.057L560.422,39.058ZM550.818,18.995C548.114,18.995 545.802,18.165 543.881,16.505C541.961,14.845 541,12.498 541,9.462C541,6.712 541.984,4.446 543.952,2.668C545.921,0.889 548.21,0 550.818,0C553.332,0 555.561,0.806 557.505,2.419C559.45,4.031 560.422,6.379 560.422,9.462C560.422,12.45 559.474,14.786 557.576,16.47C555.679,18.153 553.426,18.995 550.818,18.995ZM617.053,89.5L600.333,23.052L600.333,95.049C600.333,99.033 599.444,102.021 597.666,104.013C595.887,106.005 593.528,107.001 590.587,107.001C587.741,107.001 585.417,106.017 583.615,104.049C581.813,102.08 580.912,99.08 580.912,95.049L580.912,12.52C580.912,7.967 582.097,4.896 584.469,3.307C586.84,1.718 590.042,0.924 594.073,0.924L600.618,0.924C604.555,0.924 607.413,1.28 609.191,1.991C610.97,2.702 612.286,3.983 613.14,5.833C613.993,7.683 614.966,10.694 616.057,14.868L631.21,71.996L646.364,14.868C647.454,10.694 648.427,7.683 649.281,5.833C650.134,3.983 651.451,2.703 653.229,1.991C655.008,1.28 657.865,0.924 661.802,0.924L668.347,0.924C672.379,0.924 675.58,1.718 677.951,3.307C680.323,4.897 681.509,7.967 681.509,12.52L681.509,95.047C681.509,99.031 680.619,102.019 678.841,104.011C677.062,106.003 674.679,106.999 671.691,106.999C668.892,106.999 666.592,106.003 664.79,104.011C662.988,102.019 662.086,99.031 662.086,95.047L662.086,23.05L645.368,89.498C644.277,93.814 643.388,96.98 642.7,98.995C642.012,101.011 640.743,102.849 638.894,104.509C637.044,106.169 634.483,106.999 631.21,106.999C628.744,106.999 626.657,106.465 624.95,105.399C623.242,104.331 621.914,102.968 620.965,101.308C620.017,99.648 619.27,97.81 618.725,95.794C618.158,93.698 617.601,91.599 617.053,89.498L617.053,89.5ZM750.945,96.045C746.249,99.697 741.708,102.435 737.321,104.262C732.934,106.088 728.013,107.001 722.559,107.001C717.579,107.001 713.203,106.017 709.433,104.049C705.662,102.08 702.757,99.412 700.717,96.045C698.678,92.677 697.658,89.025 697.658,85.089C697.658,79.777 699.342,75.247 702.709,71.5C706.077,67.753 710.701,65.24 716.582,63.96C717.816,63.675 720.875,63.034 725.76,62.038C730.645,61.042 734.83,60.129 738.317,59.299C742.123,58.384 745.907,57.376 749.664,56.276C749.427,51.153 748.396,47.395 746.569,44.999C744.743,42.604 740.961,41.407 735.222,41.407C730.289,41.407 726.578,42.094 724.088,43.47C721.598,44.845 719.464,46.908 717.685,49.66C715.907,52.41 714.65,54.224 713.915,55.102C713.179,55.979 711.602,56.418 709.184,56.418C707.002,56.418 705.116,55.718 703.528,54.319C701.938,52.92 701.144,51.129 701.144,48.948C701.144,45.533 702.354,42.213 704.773,38.988C707.192,35.763 710.963,33.107 716.084,31.02C721.207,28.933 727.586,27.89 735.222,27.89C743.759,27.89 750.47,28.897 755.356,30.913C760.241,32.929 763.691,36.118 765.707,40.482C767.723,44.845 768.731,50.632 768.731,57.841C768.731,62.394 768.719,66.259 768.695,69.437C768.667,72.97 768.632,76.504 768.588,80.037C768.588,83.69 769.193,87.496 770.403,91.457C771.612,95.417 772.217,97.966 772.217,99.104C772.217,101.096 771.28,102.91 769.407,104.547C767.533,106.183 765.411,107.001 763.039,107.001C761.047,107.001 759.079,106.064 757.134,104.191C755.19,102.317 753.127,99.602 750.944,96.045L750.945,96.045ZM749.665,67.943C746.818,68.987 742.68,70.089 737.25,71.251C731.819,72.413 728.06,73.267 725.973,73.813C723.887,74.358 721.895,75.425 719.997,77.014C718.1,78.603 717.152,80.82 717.152,83.666C717.152,86.606 718.266,89.108 720.495,91.172C722.725,93.235 725.641,94.266 729.246,94.266C733.088,94.266 736.633,93.424 739.882,91.741C743.131,90.057 745.514,87.887 747.032,85.231C748.787,82.291 749.664,77.453 749.664,70.718L749.664,67.943L749.665,67.943ZM850.973,81.603C850.973,86.963 849.668,91.551 847.06,95.369C844.451,99.187 840.598,102.08 835.499,104.049C830.4,106.017 824.199,107.001 816.895,107.001C809.923,107.001 803.947,105.934 798.967,103.8C793.987,101.665 790.311,98.997 787.939,95.796C785.568,92.594 784.382,89.381 784.382,86.156C784.382,84.022 785.142,82.196 786.659,80.678C788.177,79.16 790.098,78.401 792.422,78.401C794.461,78.401 796.026,78.899 797.117,79.895C798.207,80.891 799.251,82.29 800.247,84.093C802.239,87.555 804.623,90.14 807.397,91.847C810.172,93.555 813.954,94.409 818.745,94.409C822.634,94.409 825.823,93.543 828.313,91.812C830.803,90.081 832.049,88.101 832.049,85.872C832.049,82.456 830.756,79.966 828.171,78.402C825.586,76.836 821.33,75.342 815.401,73.919C808.713,72.259 803.271,70.516 799.073,68.69C794.876,66.864 791.52,64.457 789.007,61.47C786.493,58.481 785.236,54.805 785.236,50.442C785.236,46.552 786.398,42.877 788.722,39.415C791.046,35.952 794.472,33.19 799.002,31.126C803.532,29.063 808.998,28.032 815.401,28.032C820.428,28.032 824.946,28.553 828.954,29.597C832.962,30.64 836.305,32.039 838.985,33.794C841.665,35.549 843.705,37.494 845.103,39.628C846.503,41.762 847.203,43.849 847.203,45.888C847.203,48.118 846.455,49.944 844.961,51.367C843.467,52.79 841.345,53.501 838.594,53.501C836.602,53.501 834.906,52.931 833.507,51.794C832.107,50.655 830.507,48.948 828.705,46.671C827.235,44.774 825.503,43.256 823.511,42.118C821.519,40.98 818.816,40.411 815.401,40.411C811.891,40.411 808.974,41.158 806.651,42.651C804.326,44.146 803.164,46.007 803.164,48.236C803.164,50.276 804.018,51.948 805.725,53.252C807.433,54.556 809.733,55.635 812.626,56.489C815.52,57.343 819.504,58.386 824.578,59.619C830.602,61.089 835.523,62.845 839.341,64.884C843.159,66.924 846.052,69.33 848.021,72.105C849.989,74.88 850.973,78.045 850.973,81.603ZM868.474,29.739L870.608,29.739L870.608,18.07C870.608,14.94 870.691,12.486 870.858,10.707C871.023,8.929 871.486,7.399 872.245,6.118C873.004,4.79 874.095,3.711 875.517,2.881C876.94,2.051 878.529,1.636 880.284,1.636C882.75,1.636 884.979,2.561 886.971,4.411C888.277,5.605 889.164,7.191 889.497,8.929C889.853,10.707 890.031,13.233 890.031,16.505L890.031,29.738L897.145,29.738C899.895,29.738 901.995,30.39 903.441,31.694C904.888,32.999 905.611,34.671 905.611,36.71C905.611,39.319 904.579,41.145 902.516,42.188C900.453,43.232 897.501,43.753 893.659,43.753L890.031,43.753L890.031,79.467C890.031,82.503 890.137,84.839 890.351,86.475C890.564,88.111 891.133,89.439 892.058,90.459C892.983,91.479 894.488,91.989 896.576,91.989C897.714,91.989 899.256,91.787 901.2,91.384C903.145,90.981 904.662,90.779 905.753,90.779C907.318,90.779 908.729,91.408 909.986,92.665C911.243,93.921 911.872,95.475 911.872,97.325C911.872,100.455 910.164,102.85 906.749,104.51C903.334,106.17 898.426,107 892.023,107C885.952,107 881.351,105.98 878.221,103.94C875.091,101.901 873.039,99.08 872.067,95.475C871.095,91.87 870.608,87.056 870.608,81.033L870.608,43.753L868.048,43.753C865.248,43.753 863.115,43.089 861.644,41.761C860.174,40.433 859.439,38.75 859.439,36.711C859.439,34.671 860.209,32.999 861.751,31.694C863.292,30.39 865.533,29.738 868.474,29.738L868.474,29.739ZM973.197,72.283L935.207,72.283C935.254,76.693 936.143,80.583 937.875,83.95C939.605,87.318 941.906,89.855 944.775,91.563C947.645,93.27 950.811,94.124 954.273,94.124C956.597,94.124 958.72,93.851 960.641,93.306C962.561,92.76 964.423,91.906 966.225,90.745C967.974,89.623 969.638,88.375 971.205,87.01C972.723,85.682 974.691,83.88 977.11,81.603C978.106,80.749 979.53,80.323 981.379,80.323C983.371,80.323 984.984,80.868 986.217,81.958C987.45,83.049 988.067,84.591 988.067,86.583C988.067,88.338 987.379,90.389 986.003,92.737C984.628,95.084 982.553,97.337 979.778,99.495C977.004,101.653 973.518,103.444 969.32,104.867C965.123,106.29 960.297,107.001 954.842,107.001C942.369,107.001 932.669,103.444 925.745,96.329C918.82,89.215 915.358,79.563 915.358,67.374C915.358,61.635 916.211,56.311 917.918,51.402C919.626,46.493 922.116,42.284 925.389,38.774C928.662,35.264 932.693,32.573 937.483,30.699C942.273,28.826 947.586,27.889 953.42,27.889C961.008,27.889 967.518,29.49 972.948,32.691C978.379,35.893 982.446,40.031 985.15,45.106C987.853,50.181 989.205,55.351 989.205,60.616C989.205,65.501 987.805,68.666 985.007,70.113C982.209,71.56 978.272,72.283 973.197,72.283ZM935.207,61.256L970.423,61.256C969.949,54.616 968.158,49.647 965.052,46.351C961.945,43.055 957.854,41.407 952.779,41.407C947.941,41.407 943.969,43.078 940.863,46.422C937.756,49.766 935.871,54.71 935.207,61.256ZM1024.85,78.97L1024.85,95.19C1024.85,99.127 1023.92,102.08 1022.07,104.048C1020.22,106.016 1017.88,107 1015.03,107C1012.23,107 1009.93,106.004 1008.13,104.012C1006.33,102.02 1005.43,99.079 1005.43,95.19L1005.43,41.121C1005.43,32.394 1008.58,28.031 1014.89,28.031C1018.11,28.031 1020.44,29.051 1021.86,31.09C1023.28,33.13 1024.07,36.14 1024.21,40.125C1026.53,36.141 1028.91,33.129 1031.36,31.09C1033.8,29.05 1037.06,28.03 1041.14,28.03C1045.22,28.03 1049.18,29.05 1053.02,31.09C1056.86,33.13 1058.78,35.833 1058.78,39.2C1058.78,41.572 1057.96,43.528 1056.33,45.07C1054.69,46.61 1052.93,47.382 1051.03,47.382C1050.32,47.382 1048.6,46.942 1045.87,46.065C1043.14,45.188 1040.74,44.749 1038.65,44.749C1035.8,44.749 1033.48,45.496 1031.68,46.99C1029.88,48.484 1028.48,50.702 1027.48,53.642C1026.48,56.582 1025.8,60.081 1025.42,64.136C1025.04,68.191 1024.85,73.136 1024.85,78.969L1024.85,78.97ZM1128.29,81.603C1128.29,86.963 1126.99,91.551 1124.38,95.369C1121.77,99.187 1117.91,102.08 1112.82,104.049C1107.72,106.017 1101.52,107.001 1094.21,107.001C1087.24,107.001 1081.27,105.934 1076.29,103.8C1071.31,101.665 1067.63,98.997 1065.26,95.796C1062.89,92.594 1061.7,89.381 1061.7,86.156C1061.7,84.022 1062.46,82.196 1063.98,80.678C1065.49,79.16 1067.41,78.401 1069.74,78.401C1071.78,78.401 1073.34,78.899 1074.43,79.895C1075.53,80.891 1076.57,82.29 1077.57,84.093C1079.56,87.555 1081.94,90.14 1084.71,91.847C1087.49,93.555 1091.27,94.409 1096.06,94.409C1099.95,94.409 1103.14,93.543 1105.63,91.812C1108.12,90.081 1109.37,88.101 1109.37,85.872C1109.37,82.456 1108.07,79.966 1105.49,78.402C1102.9,76.836 1098.65,75.342 1092.72,73.919C1086.03,72.259 1080.59,70.516 1076.39,68.69C1072.19,66.864 1068.84,64.457 1066.32,61.47C1063.81,58.481 1062.55,54.805 1062.55,50.442C1062.55,46.552 1063.72,42.877 1066.04,39.415C1068.36,35.952 1071.79,33.19 1076.32,31.126C1080.85,29.063 1086.32,28.032 1092.72,28.032C1097.75,28.032 1102.26,28.553 1106.27,29.597C1110.28,30.64 1113.62,32.039 1116.3,33.794C1118.98,35.549 1121.02,37.494 1122.42,39.628C1123.82,41.762 1124.52,43.849 1124.52,45.888C1124.52,48.118 1123.77,49.944 1122.28,51.367C1120.79,52.79 1118.66,53.501 1115.91,53.501C1113.92,53.501 1112.22,52.931 1110.83,51.794C1109.42,50.655 1107.83,48.948 1106.02,46.671C1104.55,44.774 1102.82,43.256 1100.83,42.118C1098.84,40.98 1096.13,40.411 1092.72,40.411C1089.21,40.411 1086.29,41.158 1083.97,42.651C1081.64,44.146 1080.48,46.007 1080.48,48.236C1080.48,50.276 1081.34,51.948 1083.04,53.252C1084.75,54.556 1087.05,55.635 1089.94,56.489C1092.84,57.343 1096.82,58.386 1101.9,59.619C1107.92,61.089 1112.84,62.845 1116.66,64.884C1120.48,66.924 1123.37,69.33 1125.34,72.105C1127.31,74.88 1128.29,78.045 1128.29,81.603ZM0.203,165.734L42.047,165.734C67.573,165.802 80.336,179.784 80.336,207.68L80.336,237.64C80.336,258.224 71.162,271.495 52.813,277.453C48.411,278.875 42.013,279.586 33.617,279.586L28.945,279.586L28.945,365L0.203,365L0.203,165.734ZM28.945,194.07L28.945,251.148L35.547,251.148C39.542,251.148 42.284,250.878 43.773,250.336C48.987,248.237 51.593,244.006 51.593,237.641L51.593,207.68C51.593,198.607 47.43,194.07 39.102,194.07L28.945,194.07ZM137.865,365L137.865,165.734L166.606,165.734L166.606,336.664L212.411,336.664L212.411,365L137.864,365L137.865,365ZM346.009,294.312L355.353,365L326.306,365L320.72,322.75L291.37,322.75L285.68,365L256.735,365L266.079,294.617L286.391,165.734L325.797,165.734L346.008,294.312L346.009,294.312ZM316.963,294.312L305.993,211.437L295.025,294.312L316.963,294.312ZM408.819,165.734L437.561,165.734L464.78,281.312L464.78,165.734L491.39,165.734L491.39,365L462.647,365L436.444,253.078L436.444,365L408.819,365L408.819,165.734ZM553.995,165.734L595.839,165.734C621.365,165.802 634.129,179.784 634.129,207.68L634.129,237.64C634.129,255.177 626.579,266.721 611.479,272.273L643.778,365L612.293,365L586.395,277.352L582.739,277.859L582.739,365L553.996,365L553.996,165.734L553.995,165.734ZM582.738,194.07L582.738,251.148L589.339,251.148C593.334,251.148 596.076,250.878 597.566,250.336C602.779,248.237 605.386,244.006 605.386,237.641L605.386,207.68C605.386,198.607 601.222,194.07 592.894,194.07L582.738,194.07ZM776.766,326.305C776.766,354.201 762.987,368.182 735.43,368.25C707.94,368.25 694.195,354.268 694.195,326.305L694.195,204.43C694.195,176.534 707.94,162.586 735.43,162.586C762.987,162.586 776.766,176.534 776.766,204.43L776.766,326.305ZM748.023,204.43C748.023,195.492 743.859,190.99 735.531,190.922L735.328,190.922C727.068,190.922 722.938,195.424 722.938,204.43L722.938,326.305C722.938,335.31 727.102,339.812 735.43,339.812C743.826,339.812 748.023,335.31 748.023,326.305L748.023,204.43ZM917.88,326.305C917.88,354.201 904.101,368.182 876.544,368.25C849.054,368.25 835.309,354.268 835.309,326.305L835.309,204.43C835.309,176.534 849.054,162.586 876.544,162.586C904.101,162.586 917.88,176.534 917.88,204.43L917.88,231.242L889.138,231.242L889.138,204.43C889.138,195.492 884.973,190.99 876.645,190.922L876.442,190.922C868.182,190.922 864.052,195.424 864.052,204.43L864.052,326.305C864.052,335.31 868.216,339.812 876.544,339.812C884.94,339.812 889.138,335.31 889.138,326.305L889.138,299.492L917.88,299.492L917.88,326.305ZM1029.54,265.367L1067.53,365L1036.75,365L1006.18,276.437L1006.18,365L977.44,365L977.44,165.734L1006.18,165.734L1006.18,254.398L1036.75,165.734L1067.53,165.734L1029.54,265.367L1029.54,265.367ZM1120.99,165.734L1162.83,165.734C1188.36,165.802 1201.12,179.784 1201.12,207.68L1201.12,237.64C1201.12,255.177 1193.57,266.721 1178.48,272.273L1210.77,365L1179.29,365L1153.39,277.352L1149.73,277.859L1149.73,365L1120.99,365L1120.99,165.734L1120.99,165.734ZM1149.73,194.07L1149.73,251.148L1156.33,251.148C1160.33,251.148 1163.07,250.878 1164.56,250.336C1169.78,248.237 1172.38,244.006 1172.38,237.641L1172.38,207.68C1172.38,198.607 1168.22,194.07 1159.89,194.07L1149.73,194.07Z" style="fill:rgb(29,29,27);fill-rule:nonzero;"/>
            </g>
        </g>
    </g>
</svg>
