<?xml version="1.0" encoding="UTF-8" standalone="no"?>
<svg width="1211px" height="369px" viewBox="0 0 1211 369" version="1.1" xmlns="http://www.w3.org/2000/svg" xmlns:xlink="http://www.w3.org/1999/xlink">
    <title>iMasters Planrockr</title>
    <g fill="#1D1D1B">
        <rect x="1132" y="116" width="75" height="9"></rect>
        <path d="M560.422207,39.0578457 L560.422207,95.1901596 C560.422207,99.0793634 559.49735,102.019937 557.647606,104.011968 C555.797863,106.003999 553.450147,107 550.604388,107 C547.758629,107 545.446485,105.980285 543.667886,103.940824 C541.889286,101.901364 541,98.9845048 541,95.1901596 L541,39.6269947 C541,35.7852202 541.889286,32.8920753 543.667886,30.9474734 C545.446485,29.0028715 547.758629,28.0305851 550.604388,28.0305851 C553.450147,28.0305851 555.797863,29.0028715 557.647606,30.9474734 C559.49735,32.8920753 560.422207,35.5955057 560.422207,39.0578457 L560.422207,39.0578457 Z M550.817819,18.9953457 C548.114348,18.9953457 545.802204,18.1653452 543.881316,16.5053191 C541.960429,14.8452931 541,12.4975772 541,9.46210106 C541,6.71120078 541.984144,4.44648496 543.95246,2.66788564 C545.920777,0.88928632 548.209207,0 550.817819,0 C553.331573,0 555.560717,0.806286263 557.505319,2.41888298 C559.449921,4.03147969 560.422207,6.37919558 560.422207,9.46210106 C560.422207,12.4501479 559.473635,14.7860067 557.576463,16.4697473 C555.67929,18.153488 553.426431,18.9953457 550.817819,18.9953457 L550.817819,18.9953457 Z M617.052527,89.4986702 L600.333777,23.0505319 L600.333777,95.0478723 C600.333777,99.0319348 599.44449,102.019937 597.665891,104.011968 C595.887292,106.003999 593.527719,107 590.587101,107 C587.741342,107 585.417341,106.015856 583.615027,104.04754 C581.812713,102.079223 580.911569,99.0793641 580.911569,95.0478723 L580.911569,12.5212766 C580.911569,7.96806234 582.097284,4.89706025 584.46875,3.30817819 C586.840216,1.71929613 590.041647,0.924867021 594.073138,0.924867021 L600.618351,0.924867021 C604.554984,0.924867021 607.412558,1.28058155 609.191157,1.99202128 C610.969756,2.703461 612.2859,3.9840333 613.139628,5.8337766 C613.993355,7.68351989 614.965642,10.6952362 616.056516,14.869016 L631.210106,71.9973404 L646.363697,14.869016 C647.454571,10.6952362 648.426857,7.68351989 649.280585,5.8337766 C650.134313,3.9840333 651.450457,2.703461 653.229056,1.99202128 C655.007655,1.28058155 657.865229,0.924867021 661.801862,0.924867021 L668.347074,0.924867021 C672.378566,0.924867021 675.579997,1.71929613 677.951463,3.30817819 C680.322929,4.89706025 681.508644,7.96806234 681.508644,12.5212766 L681.508644,95.0478723 C681.508644,99.0319348 680.619357,102.019937 678.840758,104.011968 C677.062159,106.003999 674.678871,107 671.690824,107 C668.892495,107 666.592208,106.003999 664.789894,104.011968 C662.98758,102.019937 662.086436,99.0319348 662.086436,95.0478723 L662.086436,23.0505319 L645.367686,89.4986702 C644.276812,93.8147379 643.387526,96.9805972 642.699801,98.9963431 C642.012075,101.012089 640.74336,102.849947 638.893617,104.509973 C637.043874,106.169999 634.482729,107 631.210106,107 C628.743782,107 626.656923,106.466428 624.949468,105.399269 C623.242013,104.332109 621.914012,102.968537 620.965426,101.308511 C620.016839,99.6484846 619.269839,97.8106262 618.724402,95.7948803 C618.178964,93.7791344 617.621678,91.6804187 617.052527,89.4986702 L617.052527,89.4986702 Z M750.944814,96.043883 C746.249312,99.6959402 741.708023,102.434942 737.320811,104.260971 C732.9336,106.086999 728.012882,107 722.558511,107 C717.578433,107 713.203144,106.015856 709.432513,104.04754 C705.661883,102.079223 702.756881,99.4113644 700.71742,96.043883 C698.67796,92.6764016 697.658245,89.0243991 697.658245,85.087766 C697.658245,79.7756827 699.34196,75.246251 702.709441,71.4993351 C706.076923,67.7524192 710.701212,65.2387032 716.582447,63.9581117 C717.815609,63.6735358 720.874754,63.0332497 725.759973,62.037234 C730.645193,61.0412184 734.830767,60.1282178 738.316822,59.2982048 C741.802876,58.4681918 745.585308,57.4603339 749.664229,56.2746011 C749.427082,51.152235 748.39551,47.3935182 746.569481,44.9983378 C744.743453,42.6031574 740.961022,41.4055851 735.222074,41.4055851 C730.289426,41.4055851 726.578137,42.0932999 724.088098,43.46875 C721.598059,44.8442001 719.463772,46.9073444 717.685173,49.6582447 C715.906574,52.409145 714.649716,54.2232891 713.914561,55.1007314 C713.179407,55.9781737 711.602406,56.4168883 709.183511,56.4168883 C707.001762,56.4168883 705.116475,55.7173164 703.527593,54.3181516 C701.938711,52.9189868 701.144282,51.128557 701.144282,48.9468085 C701.144282,45.5318978 702.353711,42.2118956 704.772606,38.9867021 C707.191501,35.7615087 710.962075,33.1055069 716.084441,31.018617 C721.206808,28.9317272 727.585955,27.8882979 735.222074,27.8882979 C743.759351,27.8882979 750.470499,28.8961557 755.355718,30.9119016 C760.240938,32.9276475 763.691368,36.1172211 765.707114,40.4807181 C767.72286,44.8442151 768.730718,50.6305047 768.730718,57.8397606 C768.730718,62.3929749 768.718861,66.2584061 768.695146,69.4361702 C768.671432,72.6139343 768.63586,76.1473653 768.588431,80.0365691 C768.588431,83.6886264 769.193146,87.4947719 770.402593,91.4551197 C771.612041,95.4154675 772.216755,97.9647549 772.216755,99.1030585 C772.216755,101.09509 771.28004,102.909234 769.406582,104.545545 C767.533124,106.181857 765.410694,107 763.039229,107 C761.047197,107 759.07891,106.063285 757.134309,104.189827 C755.189707,102.316369 753.126562,99.6010816 750.944814,96.043883 L750.944814,96.043883 Z M749.664229,67.9421543 C746.81847,68.9855992 742.680324,70.0883142 737.249668,71.2503324 C731.819011,72.4123507 728.060294,73.2660655 725.973404,73.8115027 C723.886514,74.3569398 721.894513,75.4240834 719.99734,77.0129654 C718.100168,78.6018475 717.151596,80.8191347 717.151596,83.6648936 C717.151596,86.6055112 718.266168,89.10737 720.495346,91.1705452 C722.724524,93.2337204 725.641383,94.2652926 729.246011,94.2652926 C733.087785,94.2652926 736.633073,93.4234348 739.881981,91.7396941 C743.130889,90.0559535 745.514177,87.8860948 747.031915,85.2300532 C748.7868,82.2894357 749.664229,77.4517181 749.664229,70.7167553 L749.664229,67.9421543 Z M850.972739,81.6017287 C850.972739,86.9612413 849.668453,91.5499587 847.05984,95.3680186 C844.451228,99.1860785 840.597654,102.079223 835.499003,104.04754 C830.400351,106.015856 824.199061,107 816.894947,107 C809.922837,107 803.946833,105.932856 798.966755,103.798537 C793.986677,101.664218 790.31096,98.9963591 787.939495,95.7948803 C785.568029,92.5934015 784.382314,89.3801136 784.382314,86.1549202 C784.382314,84.020601 785.141171,82.1945998 786.65891,80.6768617 C788.176648,79.1591236 790.097506,78.400266 792.421543,78.400266 C794.461003,78.400266 796.026147,78.8982663 797.117021,79.8942819 C798.207896,80.8902975 799.251325,82.2894413 800.24734,84.0917553 C802.239372,87.5540953 804.622659,90.1389542 807.397274,91.8464096 C810.171889,93.5538649 813.95432,94.4075798 818.744681,94.4075798 C822.633885,94.4075798 825.823458,93.5420078 828.313497,91.8108378 C830.803536,90.0796678 832.048537,88.0995236 832.048537,85.8703457 C832.048537,82.4554351 830.756108,79.9654334 828.17121,78.400266 C825.586312,76.8350986 821.329595,75.3410975 815.400931,73.9182181 C808.713397,72.2581921 803.270965,70.5151909 799.073471,68.6891622 C794.875976,66.8631336 791.520403,64.456132 789.006649,61.4680851 C786.492895,58.4800383 785.236037,54.8043215 785.236037,50.4408245 C785.236037,46.5516206 786.398038,42.8759038 788.722074,39.4135638 C791.046111,35.9512238 794.472828,33.1885077 799.002327,31.1253324 C803.531827,29.0621572 808.997973,28.0305851 815.400931,28.0305851 C820.428438,28.0305851 824.946013,28.5522997 828.95379,29.5957447 C832.961567,30.6391896 836.305284,32.0383334 838.98504,33.7932181 C841.664796,35.5481027 843.704226,37.4926755 845.103391,39.6269947 C846.502556,41.7613139 847.202128,43.8481724 847.202128,45.887633 C847.202128,48.1168108 846.455127,49.942812 844.961104,51.3656915 C843.46708,52.7885709 841.34465,53.5 838.59375,53.5 C836.601719,53.5 834.906146,52.9308568 833.506981,51.7925532 C832.107817,50.6542496 830.507101,48.9468199 828.704787,46.6702128 C827.234478,44.7730402 825.503334,43.2553248 823.511303,42.1170213 C821.519272,40.9787177 818.815842,40.4095745 815.400931,40.4095745 C811.891162,40.4095745 808.974302,41.156575 806.650266,42.6505984 C804.32623,44.1446218 803.164229,46.0061945 803.164229,48.2353723 C803.164229,50.2748329 804.017944,51.9466912 805.725399,53.2509973 C807.432854,54.5553035 809.733142,55.6343042 812.62633,56.4880319 C815.519518,57.3417596 819.503521,58.3851889 824.578457,59.6183511 C830.60198,61.0886598 835.522698,62.8435182 839.340758,64.8829787 C843.158818,66.9224393 846.051963,69.3294409 848.020279,72.1040559 C849.988596,74.8786708 850.972739,78.0445301 850.972739,81.6017287 L850.972739,81.6017287 Z M868.474069,29.7380319 L870.608378,29.7380319 L870.608378,18.0704787 C870.608378,14.9401439 870.691378,12.4857137 870.85738,10.7071144 C871.023383,8.92851504 871.485812,7.39894257 872.244681,6.11835106 C873.00355,4.79033024 874.094408,3.7113295 875.517287,2.88131649 C876.940167,2.05130347 878.529025,1.63630319 880.28391,1.63630319 C882.750234,1.63630319 884.979378,2.56116096 886.97141,4.41090426 C888.29943,5.64406645 889.141288,7.14992462 889.497008,8.92852394 C889.852728,10.7071233 890.030585,13.2326964 890.030585,16.5053191 L890.030585,29.7380319 L897.144947,29.7380319 C899.895847,29.7380319 901.994563,30.3901752 903.441157,31.6944814 C904.887751,32.9987875 905.611037,34.6706458 905.611037,36.7101064 C905.611037,39.3187187 904.579465,41.14472 902.51629,42.1881649 C900.453115,43.2316098 897.500684,43.7533245 893.65891,43.7533245 L890.030585,43.7533245 L890.030585,79.4674202 C890.030585,82.5028964 890.137299,84.8387551 890.350731,86.4750665 C890.564163,88.1113779 891.133307,89.4393788 892.058178,90.459109 C892.98305,91.4788393 894.488908,91.9886968 896.575798,91.9886968 C897.714101,91.9886968 899.255531,91.7871252 901.200133,91.3839761 C903.144735,90.9808269 904.66245,90.7792553 905.753324,90.7792553 C907.318492,90.7792553 908.729493,91.4076843 909.98637,92.6645612 C911.243247,93.921438 911.871676,95.4747248 911.871676,97.3244681 C911.871676,100.454803 910.164246,102.849947 906.749335,104.509973 C903.334424,106.169999 898.425564,107 892.022606,107 C885.951654,107 881.351079,105.980285 878.220745,103.940824 C875.09041,101.901364 873.039123,99.079362 872.066822,95.474734 C871.094521,91.8701061 870.608378,87.0561028 870.608378,81.0325798 L870.608378,43.7533245 L868.047207,43.7533245 C865.248878,43.7533245 863.114591,43.089324 861.644282,41.7613032 C860.173973,40.4332824 859.43883,38.7495669 859.43883,36.7101064 C859.43883,34.6706458 860.209545,32.9987875 861.750997,31.6944814 C863.29245,30.3901752 865.533452,29.7380319 868.474069,29.7380319 L868.474069,29.7380319 Z M973.197473,72.2819149 L935.206782,72.2819149 C935.254211,76.6928412 936.143498,80.5819867 937.874668,83.9494681 C939.605838,87.3169495 941.906125,89.8543798 944.775598,91.5618351 C947.645072,93.2692905 950.810931,94.1230053 954.273271,94.1230053 C956.597308,94.1230053 958.719738,93.8502908 960.640625,93.3048537 C962.561512,92.7594166 964.423085,91.9057017 966.225399,90.7436835 C968.027713,89.5816653 969.687714,88.3366644 971.205452,87.0086436 C972.72319,85.6806228 974.691477,83.8783359 977.110372,81.6017287 C978.106388,80.7480011 979.529246,80.3211436 981.378989,80.3211436 C983.371021,80.3211436 984.983593,80.8665726 986.216755,81.9574468 C987.449918,83.0483211 988.066489,84.5897507 988.066489,86.5817819 C988.066489,88.3366666 987.378775,90.3879537 986.003324,92.7357048 C984.627874,95.0834559 982.552873,97.3363146 979.778258,99.4943484 C977.003643,101.652382 973.517641,103.442812 969.320146,104.865691 C965.122652,106.288571 960.296791,107 954.84242,107 C942.36851,107 932.669361,103.442855 925.744681,96.3284574 C918.820001,89.2140602 915.357713,79.5623393 915.357713,67.3730053 C915.357713,61.6340582 916.211428,56.3101974 917.918883,51.4012633 C919.626338,46.4923292 922.11634,42.2830406 925.388963,38.7732713 C928.661586,35.263502 932.693017,32.5719287 937.483378,30.6984707 C942.273738,28.8250128 947.585742,27.8882979 953.419548,27.8882979 C961.008238,27.8882979 967.517814,29.4890132 972.948471,32.690492 C978.379127,35.8919708 982.44613,40.0301165 985.149601,45.1050532 C987.853072,50.1799899 989.204787,55.3497077 989.204787,60.6143617 C989.204787,65.4995812 987.805643,68.6654405 985.007314,70.1120346 C982.208984,71.5586287 978.27241,72.2819149 973.197473,72.2819149 L973.197473,72.2819149 Z M935.206782,61.2546543 L970.422872,61.2546543 C969.948579,54.6145501 968.158149,49.6464039 965.051529,46.3500665 C961.944909,43.0537291 957.854192,41.4055851 952.779255,41.4055851 C947.941465,41.4055851 943.96932,43.0774434 940.862699,46.4212101 C937.756079,49.7649768 935.870792,54.7094088 935.206782,61.2546543 L935.206782,61.2546543 Z M1024.84774,78.9694149 L1024.84774,95.1901596 C1024.84774,99.1267927 1023.92288,102.079223 1022.07314,104.04754 C1020.2234,106.015856 1017.87568,107 1015.02992,107 C1012.23159,107 1009.9313,106.003999 1008.12899,104.011968 C1006.32668,102.019937 1005.42553,99.0793634 1005.42553,95.1901596 L1005.42553,41.1210106 C1005.42553,32.3940166 1008.57953,28.0305851 1014.88763,28.0305851 C1018.11283,28.0305851 1020.43683,29.0503001 1021.85971,31.0897606 C1023.28259,33.1292212 1024.06516,36.1409375 1024.20745,40.125 C1026.53148,36.1409375 1028.91477,33.1292212 1031.35738,31.0897606 C1033.79999,29.0503001 1037.06071,28.0305851 1041.13963,28.0305851 C1045.21855,28.0305851 1049.17884,29.0503001 1053.02061,31.0897606 C1056.86239,33.1292212 1058.78324,35.8326516 1058.78324,39.200133 C1058.78324,41.5715987 1057.9651,43.5280286 1056.32879,45.0694814 C1054.69248,46.6109341 1052.92576,47.3816489 1051.02859,47.3816489 C1050.31715,47.3816489 1048.59786,46.9429344 1045.87068,46.065492 C1043.14349,45.1880497 1040.73649,44.7493351 1038.6496,44.7493351 C1035.80384,44.7493351 1033.47984,45.4963356 1031.67753,46.990359 C1029.87521,48.4843825 1028.47607,50.7016697 1027.48005,53.6422872 C1026.48404,56.5829048 1025.79632,60.0807643 1025.41689,64.1359707 C1025.03745,68.1911772 1024.84774,73.1356091 1024.84774,78.9694149 L1024.84774,78.9694149 Z M1128.29056,81.6017287 C1128.29056,86.9612413 1126.98627,91.5499587 1124.37766,95.3680186 C1121.76905,99.1860785 1117.91547,102.079223 1112.81682,104.04754 C1107.71817,106.015856 1101.51688,107 1094.21277,107 C1087.24066,107 1081.26465,105.932856 1076.28457,103.798537 C1071.3045,101.664218 1067.62878,98.9963591 1065.25731,95.7948803 C1062.88585,92.5934015 1061.70013,89.3801136 1061.70013,86.1549202 C1061.70013,84.020601 1062.45899,82.1945998 1063.97673,80.6768617 C1065.49447,79.1591236 1067.41533,78.400266 1069.73936,78.400266 C1071.77882,78.400266 1073.34397,78.8982663 1074.43484,79.8942819 C1075.52571,80.8902975 1076.56914,82.2894413 1077.56516,84.0917553 C1079.55719,87.5540953 1081.94048,90.1389542 1084.71509,91.8464096 C1087.48971,93.5538649 1091.27214,94.4075798 1096.0625,94.4075798 C1099.9517,94.4075798 1103.14128,93.5420078 1105.63132,91.8108378 C1108.12136,90.0796678 1109.36636,88.0995236 1109.36636,85.8703457 C1109.36636,82.4554351 1108.07393,79.9654334 1105.48903,78.400266 C1102.90413,76.8350986 1098.64741,75.3410975 1092.71875,73.9182181 C1086.03122,72.2581921 1080.58878,70.5151909 1076.39129,68.6891622 C1072.1938,66.8631336 1068.83822,64.456132 1066.32447,61.4680851 C1063.81071,58.4800383 1062.55386,54.8043215 1062.55386,50.4408245 C1062.55386,46.5516206 1063.71586,42.8759038 1066.03989,39.4135638 C1068.36393,35.9512238 1071.79065,33.1885077 1076.32015,31.1253324 C1080.84965,29.0621572 1086.31579,28.0305851 1092.71875,28.0305851 C1097.74626,28.0305851 1102.26383,28.5522997 1106.27161,29.5957447 C1110.27939,30.6391896 1113.6231,32.0383334 1116.30286,33.7932181 C1118.98262,35.5481027 1121.02205,37.4926755 1122.42121,39.6269947 C1123.82037,41.7613139 1124.51995,43.8481724 1124.51995,45.887633 C1124.51995,48.1168108 1123.77295,49.942812 1122.27892,51.3656915 C1120.7849,52.7885709 1118.66247,53.5 1115.91157,53.5 C1113.91954,53.5 1112.22397,52.9308568 1110.8248,51.7925532 C1109.42564,50.6542496 1107.82492,48.9468199 1106.02261,46.6702128 C1104.5523,44.7730402 1102.82115,43.2553248 1100.82912,42.1170213 C1098.83709,40.9787177 1096.13366,40.4095745 1092.71875,40.4095745 C1089.20898,40.4095745 1086.29212,41.156575 1083.96809,42.6505984 C1081.64405,44.1446218 1080.48205,46.0061945 1080.48205,48.2353723 C1080.48205,50.2748329 1081.33576,51.9466912 1083.04322,53.2509973 C1084.75067,54.5553035 1087.05096,55.6343042 1089.94415,56.4880319 C1092.83734,57.3417596 1096.82134,58.3851889 1101.89628,59.6183511 C1107.9198,61.0886598 1112.84052,62.8435182 1116.65858,64.8829787 C1120.47664,66.9224393 1123.36978,69.3294409 1125.3381,72.1040559 C1127.30641,74.8786708 1128.29056,78.0445301 1128.29056,81.6017287 L1128.29056,81.6017287 Z"></path>
        <path d="M0.203125,165.734375 L42.046875,165.734375 C67.5730443,165.802084 80.3359375,179.783715 80.3359375,207.679688 L80.3359375,237.640625 C80.3359375,258.224061 71.1615501,271.494762 52.8125,277.453125 C48.4114363,278.875007 42.0130628,279.585938 33.6171875,279.585938 L28.9453125,279.585938 L28.9453125,365 L0.203125,365 L0.203125,165.734375 Z M28.9453125,194.070312 L28.9453125,251.148438 L35.546875,251.148438 C39.5416866,251.148438 42.2838467,250.877607 43.7734375,250.335938 C48.9870052,248.236969 51.59375,244.00524 51.59375,237.640625 L51.59375,207.679688 C51.59375,198.606725 47.4297291,194.070312 39.1015625,194.070312 L28.9453125,194.070312 Z M137.864063,365 L137.864063,165.734375 L166.606251,165.734375 L166.606251,336.664062 L212.410938,336.664062 L212.410938,365 L137.864063,365 Z M346.009377,294.3125 L355.353127,365 L326.306252,365 L320.720314,322.75 L291.368752,322.75 L285.681252,365 L256.735939,365 L266.079689,294.617188 L286.392189,165.734375 L325.798439,165.734375 L346.009377,294.3125 Z M316.962502,294.3125 L305.993752,211.4375 L295.025002,294.3125 L316.962502,294.3125 Z M408.818752,165.734375 L437.56094,165.734375 L464.77969,281.3125 L464.77969,165.734375 L491.389065,165.734375 L491.389065,365 L462.646877,365 L436.443752,253.078125 L436.443752,365 L408.818752,365 L408.818752,165.734375 Z M553.995316,165.734375 L595.839066,165.734375 C621.365235,165.802084 634.128128,179.783715 634.128128,207.679688 L634.128128,237.640625 C634.128128,255.177171 626.578724,266.721326 611.479691,272.273438 L643.776566,365 L612.292191,365 L586.393753,277.351562 L582.737503,277.859375 L582.737503,365 L553.995316,365 L553.995316,165.734375 Z M582.737503,194.070312 L582.737503,251.148438 L589.339066,251.148438 C593.333877,251.148438 596.076037,250.877607 597.565628,250.335938 C602.779196,248.236969 605.385941,244.00524 605.385941,237.640625 L605.385941,207.679688 C605.385941,198.606725 601.22192,194.070312 592.893753,194.070312 L582.737503,194.070312 Z M776.765629,326.304688 C776.765629,354.20066 762.987121,368.182291 735.429691,368.25 C707.939971,368.25 694.195316,354.268369 694.195316,326.304688 L694.195316,204.429688 C694.195316,176.533715 707.939971,162.585938 735.429691,162.585938 C762.987121,162.585938 776.765629,176.533715 776.765629,204.429688 L776.765629,326.304688 Z M748.023441,204.429688 C748.023441,195.492143 743.85942,190.989584 735.531254,190.921875 L735.328129,190.921875 C727.067671,190.921875 722.937504,195.424434 722.937504,204.429688 L722.937504,326.304688 C722.937504,335.309941 727.101525,339.8125 735.429691,339.8125 C743.825567,339.8125 748.023441,335.309941 748.023441,326.304688 L748.023441,204.429688 Z M917.879692,326.304688 C917.879692,354.20066 904.101184,368.182291 876.543755,368.25 C849.054034,368.25 835.30938,354.268369 835.30938,326.304688 L835.30938,204.429688 C835.30938,176.533715 849.054034,162.585938 876.543755,162.585938 C904.101184,162.585938 917.879692,176.533715 917.879692,204.429688 L917.879692,231.242188 L889.137505,231.242188 L889.137505,204.429688 C889.137505,195.492143 884.973484,190.989584 876.645317,190.921875 L876.442192,190.921875 C868.181734,190.921875 864.051567,195.424434 864.051567,204.429688 L864.051567,326.304688 C864.051567,335.309941 868.215588,339.8125 876.543755,339.8125 C884.93963,339.8125 889.137505,335.309941 889.137505,326.304688 L889.137505,299.492188 L917.879692,299.492188 L917.879692,326.304688 Z M1029.54063,265.367188 L1067.52501,365 L1036.75157,365 L1006.18126,276.4375 L1006.18126,365 L977.439068,365 L977.439068,165.734375 L1006.18126,165.734375 L1006.18126,254.398438 L1036.75157,165.734375 L1067.52501,165.734375 L1029.54063,265.367188 Z M1120.99063,165.734375 L1162.83438,165.734375 C1188.36055,165.802084 1201.12344,179.783715 1201.12344,207.679688 L1201.12344,237.640625 C1201.12344,255.177171 1193.57404,266.721326 1178.47501,272.273438 L1210.77188,365 L1179.28751,365 L1153.38907,277.351562 L1149.73282,277.859375 L1149.73282,365 L1120.99063,365 L1120.99063,165.734375 Z M1149.73282,194.070312 L1149.73282,251.148438 L1156.33438,251.148438 C1160.32919,251.148438 1163.07135,250.877607 1164.56094,250.335938 C1169.77451,248.236969 1172.38126,244.00524 1172.38126,237.640625 L1172.38126,207.679688 C1172.38126,198.606725 1168.21724,194.070312 1159.88907,194.070312 L1149.73282,194.070312 Z"></path>
    </g>
</svg>
